<svg xmlns="http://www.w3.org/2000/svg" viewBox="0 0 16 16"><defs><style>.cls-1{fill:#4951f4;}.cls-2{fill:#fff;}</style></defs><g id="Layer_2" data-name="Layer 2"><g id="Layer_1-2" data-name="Layer 1"><rect class="cls-1" width="16" height="16" rx="8"/><path class="cls-2" d="M10.18,11.46a2,2,0,0,1,0,.25A2.16,2.16,0,0,1,8,13.61a2.18,2.18,0,0,1-2.11-2.12A2,2,0,0,1,6,10.88a.48.48,0,0,1,.77-.24h0a.5.5,0,0,1,.15.5,1.35,1.35,0,0,0,0,.29A1.19,1.19,0,0,0,8,12.65a1.17,1.17,0,0,0,.78-.27,1.19,1.19,0,0,0,.07-1.77h0l-.13-.11h0L7.43,9.4,6.06,8.24a.46.46,0,0,1-.17-.36h0a.48.48,0,0,1,.79-.37L9.33,9.75l.18.15h0A2.16,2.16,0,0,1,10.18,11.46Z"/><path class="cls-2" d="M5.82,4.54a2,2,0,0,1,0-.25A2.16,2.16,0,0,1,8,2.39a2.18,2.18,0,0,1,2.11,2.12,2,2,0,0,1-.08.61.48.48,0,0,1-.77.24h0a.5.5,0,0,1-.15-.5,1.35,1.35,0,0,0,0-.29A1.19,1.19,0,0,0,8,3.35a1.17,1.17,0,0,0-.78.27,1.19,1.19,0,0,0-.07,1.77h0l.13.11h0l1.3,1.1L9.94,7.76a.46.46,0,0,1,.17.36h0a.48.48,0,0,1-.79.37L6.67,6.25,6.49,6.1h0A2.16,2.16,0,0,1,5.82,4.54Z"/></g></g></svg>