<svg xmlns="http://www.w3.org/2000/svg" viewBox="0 0 480.66 817.27"><defs><style>.cls-1{fill:#4951f4;}</style></defs><g id="Layer_2" data-name="Layer 2"><g id="Layer_1-2" data-name="Layer 1"><path class="cls-1" d="M370.1,540a130.05,130.05,0,0,1-.87,15,127.78,127.78,0,0,1-128.9,112.75c-67.69-1-125-58.7-125.72-126.4a127.82,127.82,0,0,1,4.79-36.13,28.56,28.56,0,0,1,45.92-14h0a28.64,28.64,0,0,1,9,29.66,70.32,70.32,0,0,0-2.59,17.33c-1,38.8,30.2,71.55,69,72.4a70.64,70.64,0,0,0,51-121.1h0a68.77,68.77,0,0,0-7.83-6.61l-.06-.06h0l-77.45-65.43-81.65-69a28.57,28.57,0,0,1-10.12-21.82h0c0-24.31,28.42-37.51,47-21.82L319.27,438l10.7,9h0A127.4,127.4,0,0,1,370.1,540Z"/><path class="cls-1" d="M110.56,127.75a129.88,129.88,0,0,1,.87-15A127.78,127.78,0,0,1,240.33,0c67.7,1.05,125,58.7,125.72,126.39a127.77,127.77,0,0,1-4.79,36.13,28.57,28.57,0,0,1-45.92,14h0a28.66,28.66,0,0,1-9-29.67,70.73,70.73,0,0,0,2.6-17.33c1-38.8-30.21-71.54-69-72.4a70.64,70.64,0,0,0-51,121.1h0a67.81,67.81,0,0,0,7.82,6.61l.06.06,0,0,77.44,65.42,81.65,69a28.56,28.56,0,0,1,10.13,21.81h0c0,24.31-28.43,37.51-47,21.82L161.39,229.76l-10.7-9v0h0A127.39,127.39,0,0,1,110.56,127.75Z"/><path class="cls-1" d="M36.38,776.75a12.16,12.16,0,0,0-2-1.41,30.05,30.05,0,0,0-3.45-1.8,26.46,26.46,0,0,0-4.4-1.54,19.73,19.73,0,0,0-4.83-.61q-4.29,0-6.47,1.56a5.24,5.24,0,0,0-2.18,4.54,4.59,4.59,0,0,0,1.37,3.5,11.07,11.07,0,0,0,4.14,2.21q2.76.91,6.89,2a48.37,48.37,0,0,1,9.31,3.17,15,15,0,0,1,6,4.87,13.82,13.82,0,0,1,2.11,8,15.51,15.51,0,0,1-1.61,7.32,13.87,13.87,0,0,1-4.41,5,18.74,18.74,0,0,1-6.43,2.82,33,33,0,0,1-7.7.88,39.37,39.37,0,0,1-8.12-.85A41.47,41.47,0,0,1,6.93,814,38,38,0,0,1,0,810.22l4.67-9.11a15.34,15.34,0,0,0,2.45,1.8,33.73,33.73,0,0,0,4.29,2.22A34.68,34.68,0,0,0,16.93,807a23.79,23.79,0,0,0,6.05.77q4.36,0,6.51-1.4a4.61,4.61,0,0,0,2.14-4.13,4.71,4.71,0,0,0-1.72-3.85A15.2,15.2,0,0,0,25,796q-3.13-1-7.43-2.17A42.64,42.64,0,0,1,9,790.5,13.48,13.48,0,0,1,3.87,786a12.47,12.47,0,0,1-1.73-6.83,15.78,15.78,0,0,1,2.68-9.34,16.76,16.76,0,0,1,7.2-5.72,25.11,25.11,0,0,1,10-2,30.09,30.09,0,0,1,7.23.85,35.22,35.22,0,0,1,6.4,2.22,38,38,0,0,1,5.36,3Z"/><path class="cls-1" d="M84.09,817.27a24.85,24.85,0,0,1-10.8-2.3A26.06,26.06,0,0,1,65,808.73a28.73,28.73,0,0,1-5.44-8.89,27.74,27.74,0,0,1-1.92-10.14,27.08,27.08,0,0,1,2-10.38,29.33,29.33,0,0,1,5.59-8.81,26.5,26.5,0,0,1,8.47-6.13,25.16,25.16,0,0,1,10.64-2.26,24.23,24.23,0,0,1,10.76,2.38,25.7,25.7,0,0,1,8.31,6.36,29.76,29.76,0,0,1,5.33,8.88,28.19,28.19,0,0,1-5.6,29.22,26,26,0,0,1-8.42,6.09A25.24,25.24,0,0,1,84.09,817.27ZM68.32,789.7a21.7,21.7,0,0,0,1.07,6.81,18.58,18.58,0,0,0,3.1,5.86,14.78,14.78,0,0,0,5,4.06,14.55,14.55,0,0,0,6.7,1.49A14.16,14.16,0,0,0,91,806.35a15.5,15.5,0,0,0,4.94-4.17,17.93,17.93,0,0,0,3-5.9,22.75,22.75,0,0,0,1-6.58,21.39,21.39,0,0,0-1.08-6.78,18.19,18.19,0,0,0-3.14-5.82,15.12,15.12,0,0,0-5-4.06,14.4,14.4,0,0,0-6.67-1.5,14.13,14.13,0,0,0-6.7,1.57,15.64,15.64,0,0,0-5,4.14,18.2,18.2,0,0,0-3.06,5.82A21.75,21.75,0,0,0,68.32,789.7Z"/><path class="cls-1" d="M128.74,816.88V762.51h24.13a15.58,15.58,0,0,1,6.85,1.53,17.69,17.69,0,0,1,5.52,4.13,19.45,19.45,0,0,1,3.6,5.83,17.89,17.89,0,0,1,1.26,6.58,18.5,18.5,0,0,1-1.19,6.59,17,17,0,0,1-3.4,5.55,15.47,15.47,0,0,1-5.21,3.72l12.4,20.44H161.06l-11.18-18.22H139.31v18.22Zm10.57-27.49h13.25a5.64,5.64,0,0,0,3.53-1.19,8.42,8.42,0,0,0,2.45-3.18,10.46,10.46,0,0,0,.91-4.44,9.34,9.34,0,0,0-1.07-4.52,9.11,9.11,0,0,0-2.68-3.14,6,6,0,0,0-3.52-1.15H139.31Z"/><path class="cls-1" d="M189.63,816.88V762.51h19.76q8.88,0,14.86,3.63a23.1,23.1,0,0,1,9,9.81,31,31,0,0,1,3,13.67,30,30,0,0,1-3.3,14.4,23.29,23.29,0,0,1-9.3,9.49,28.58,28.58,0,0,1-14.21,3.37Zm35.92-27.26a21.53,21.53,0,0,0-1.91-9.31,14.74,14.74,0,0,0-5.52-6.28,16.15,16.15,0,0,0-8.73-2.26H200.2v35.85h9.19a15.58,15.58,0,0,0,8.85-2.38,15.19,15.19,0,0,0,5.43-6.43A21.69,21.69,0,0,0,225.55,789.62Z"/><path class="cls-1" d="M277.4,817.27a25.19,25.19,0,0,1-11-2.19,19,19,0,0,1-7.35-6,25.89,25.89,0,0,1-4.1-8.69,39,39,0,0,1-1.3-10.15V762.51h10.49v27.72a29,29,0,0,0,.73,6.55,19.64,19.64,0,0,0,2.22,5.71,10.89,10.89,0,0,0,4,4,12.42,12.42,0,0,0,6.28,1.45,12.24,12.24,0,0,0,6.39-1.49,11.72,11.72,0,0,0,4-4A18.34,18.34,0,0,0,290,796.7a30.3,30.3,0,0,0,.68-6.47V762.51h10.5v27.72a38.75,38.75,0,0,1-1.38,10.46,25.55,25.55,0,0,1-4.21,8.65,19.24,19.24,0,0,1-7.36,5.82A25.45,25.45,0,0,1,277.4,817.27Z"/><path class="cls-1" d="M318.53,789.24a27.82,27.82,0,0,1,1.8-9.85,27.44,27.44,0,0,1,5.28-8.69,25.76,25.76,0,0,1,19.72-8.58,24.65,24.65,0,0,1,13,3.3,20.41,20.41,0,0,1,8.08,8.58l-8,5.59a12.64,12.64,0,0,0-3.6-4.83,14.24,14.24,0,0,0-4.78-2.53,17.32,17.32,0,0,0-4.94-.76,14.2,14.2,0,0,0-6.94,1.61,15.1,15.1,0,0,0-4.9,4.21,19.13,19.13,0,0,0-2.95,5.82,22,22,0,0,0-1,6.51,20.74,20.74,0,0,0,1.15,6.85,18.9,18.9,0,0,0,3.25,5.9,15.68,15.68,0,0,0,5.06,4.06,14,14,0,0,0,6.47,1.49,16.39,16.39,0,0,0,5.05-.84,14.42,14.42,0,0,0,4.83-2.68,13.42,13.42,0,0,0,3.6-4.82l8.58,5a16.82,16.82,0,0,1-5.33,6.89,26.3,26.3,0,0,1-8.11,4.29,28.83,28.83,0,0,1-8.93,1.46,23.3,23.3,0,0,1-10.6-2.41,27.1,27.1,0,0,1-8.31-6.44,30.15,30.15,0,0,1-5.48-9A27.75,27.75,0,0,1,318.53,789.24Z"/><path class="cls-1" d="M424.91,771.77H407.6v45.11H397.1V771.77H379.64v-9.26h45.27Z"/><path class="cls-1" d="M474.08,776.75a11.9,11.9,0,0,0-2-1.41,29,29,0,0,0-3.44-1.8,26.9,26.9,0,0,0-4.41-1.54,19.59,19.59,0,0,0-4.82-.61q-4.29,0-6.47,1.56a5.25,5.25,0,0,0-2.19,4.54,4.56,4.56,0,0,0,1.38,3.5,11.07,11.07,0,0,0,4.14,2.21q2.74.91,6.89,2a48.85,48.85,0,0,1,9.31,3.17,15.11,15.11,0,0,1,6.05,4.87,13.82,13.82,0,0,1,2.1,8,15.39,15.39,0,0,1-1.61,7.32,13.84,13.84,0,0,1-4.4,5,18.82,18.82,0,0,1-6.43,2.82,33.09,33.09,0,0,1-7.7.88,39.3,39.3,0,0,1-8.12-.85,41,41,0,0,1-7.77-2.41,38,38,0,0,1-6.93-3.79l4.67-9.11a14.87,14.87,0,0,0,2.45,1.8,32.42,32.42,0,0,0,4.29,2.22,34.56,34.56,0,0,0,5.51,1.87,23.84,23.84,0,0,0,6.05.77q4.36,0,6.51-1.4a4.62,4.62,0,0,0,2.15-4.13,4.72,4.72,0,0,0-1.73-3.85,15.25,15.25,0,0,0-4.86-2.44q-3.14-1-7.43-2.17a42.64,42.64,0,0,1-8.61-3.28,13.44,13.44,0,0,1-5.14-4.54,12.47,12.47,0,0,1-1.72-6.83,15.71,15.71,0,0,1,2.68-9.34,16.76,16.76,0,0,1,7.2-5.72,25.06,25.06,0,0,1,10-2A30.12,30.12,0,0,1,467,763a35.76,35.76,0,0,1,6.4,2.22,38.54,38.54,0,0,1,5.36,3Z"/></g></g></svg>